<svg xmlns="http://www.w3.org/2000/svg" width="90" height="90" viewBox="0 0 90 90">
    <g fill="none" fill-rule="evenodd">
        <circle cx="45" cy="45" r="43" stroke="#EFEFEF" stroke-width="4"/>
        <g fill="#DDD" transform="translate(30 27)">
            <path d="M3 13h24a3 3 0 0 1 3 3v18a3 3 0 0 1-3 3H3a3 3 0 0 1-3-3V16a3 3 0 0 1 3-3zm0 3v18h24V16H3z"/>
            <circle cx="15" cy="25" r="3"/>
            <path d="M25 15h-3v-5a7 7 0 0 0-14 0v5H5v-5C5 4.477 9.477 0 15 0s10 4.477 10 10v5z"/>
        </g>
    </g>
</svg>
